<svg xmlns="http://www.w3.org/2000/svg" id="DEXSCREENER" viewBox="0 0 146 142.9">
  <defs>
    <style>
      .cls-1 {
        fill: #fff;
      }

      .cls-1, .cls-2, .cls-3 {
        stroke-width: 0px;
      }

      .cls-2 {
        fill: #050404;
      }

      .cls-3 {
        fill: #f9f9f9;
      }
    </style>
  </defs>
  <path class="cls-2" d="m0,60.97C.59,37.5,12.29,19.93,33.5,8.57,53.61-2.2,74.62-1.8,95.86,4.76c4.14,1.28,8.18,3,12.1,4.86,22.04,10.42,33.89,28.18,37.24,52,1.35,9.62.96,19.18-.92,28.7-2.43,12.29-7.86,23.05-17.11,31.51-15.49,14.16-33.69,21.81-54.93,21.01-8.46-.32-16.5-2.58-23.55-7.5-7.87-5.49-15.69-11.05-23.44-16.71-3.23-2.36-5.98-5.18-7.4-9.14-.53-1.48-1.82-2.68-2.76-4C5.75,92.47.36,78.09,0,60.97Zm84.4,16.07c-.43.49-.85.98-1.28,1.47-1.95-2.1-3.83-4.28-5.88-6.27-2.35-2.29-4.88-2.34-7.05.08-1.14,1.27-1.91,3.03-2.35,4.7-.59,2.25-.69,4.62-1,6.94-.64-.38-1.29-.76-1.93-1.13-.57-2.59-1.14-5.18-1.7-7.71-1.96,1.45-3.76,3.36-5.97,4.29-5.87,2.47-14.09-1.49-14.75-9,.18-2.25.42-4.52-.32-6.64-.43.02-.86.04-1.28.07v6.62c-.96,14.7.65,29.51-2.05,44.3,2.67-1.87,4.89-3.95,7.17-5.97,5.18-4.61,7.54-4.55,12.34.54,2.57,2.72,4.93,5.64,7.64,8.76,1.64-3.18,2.92-5.95,4.47-8.57,2.01-3.38,4.26-4.04,7.77-2.35,1.62.78,3.1,1.87,4.61,2.88,2.21,1.47,4.38,2.99,6.98,4.77.76-2.34,1.38-4.18,1.97-6.03,1.92-6.15,4.34-7.05,9.99-3.67,1.96,1.17,3.86,2.44,6.2,3.92.08-1.7.11-2.6.16-3.5.3-5.61,1.83-6.98,7.46-6.57,2.18.16,4.35.49,7.16.82-11.56-11.2-17.83-24.77-23.33-38.8-.41-1.3-.82-2.61-1.24-3.91-.43.16-.85.32-1.28.47.42,1.15.83,2.29,1.25,3.44.09,8.54-4.69,12.03-12.12,8.82-.82-.35-1.55-1.1-2.38-1.19-.94-.1-1.93.33-3.09.57,1.49,3.08,2.66,5.48,3.82,7.88Zm-42.63-18.32c7.68,3.32,15.11,6.57,22.59,9.69.86.36,2.34.37,3-.15,3.45-2.69,7.24-2.73,11.08-1.49,3.65-5.95,7.07-11.49,10.44-17.06.75-1.23,1.28-2.59,1.95-3.88.95-1.82,1.88-3.78.46-5.61-2.68-3.45-1.42-6.72-.15-10.21,1.6-4.39-.56-10.48-4.49-13.22-1.12,4.15-2.23,8.26-3.38,12.51-16.83-8.18-27.4.56-36.55,11.69-6.53.17-7.76-7.22-13.8-8.91-.66,9.22,4.46,14.48,9.91,19.36-.33,2.25-.61,4.2-1.06,7.27Zm4.84,13.83c5.37,4.38,9.05,3.89,13.49-1.64-3.31-.94-6.57-1.87-9.85-2.8-1.17,1.43-2.29,2.8-3.64,4.44Zm41.89-12.25c-1.16,1.73-2.21,3.29-3.3,4.91,6.44,2.54,8.47,1.3,7.85-4.6-1.33-.09-2.69-.19-4.56-.32Zm-43.45,8.79c.39-.05.77-.09,1.16-.14-.29-1.25-.58-2.5-.87-3.76-.39.1-.78.19-1.18.29.3,1.2.59,2.4.89,3.61Z"/>
  <path class="cls-1" d="m99.44,60.97c5.5,14.02,11.77,27.6,23.33,38.8-2.81-.33-4.98-.66-7.16-.82-5.63-.42-7.17.96-7.46,6.57-.05.9-.08,1.8-.16,3.5-2.34-1.48-4.24-2.74-6.2-3.92-5.64-3.38-8.06-2.48-9.99,3.67-.58,1.85-1.2,3.7-1.97,6.03-2.59-1.78-4.77-3.3-6.98-4.77-1.51-1-2.98-2.1-4.61-2.88-3.51-1.69-5.77-1.03-7.77,2.35-1.55,2.61-2.83,5.39-4.47,8.57-2.71-3.12-5.07-6.04-7.64-8.76-4.8-5.09-7.16-5.15-12.34-.54-2.28,2.03-4.5,4.1-7.17,5.97,2.7-14.79,1.09-29.6,2.05-44.29.53-.01,1.07-.04,1.6-.06.66,7.51,8.88,11.47,14.75,9,2.21-.93,4.01-2.84,5.97-4.29.56,2.53,1.13,5.12,1.7,7.71.34,2.16-.85,3.28-2.61,4.25-1.72.95-3.48,2.02-4.84,3.41-1.56,1.6-1.79,3.91.12,5.28,2.58,1.86,5.38,3.63,8.95,1.82,3.21-1.64,6.25-1.47,8.56,1.81.41.58,1.02,1.04,1.59,1.48,2,1.54,3.96,3.61,6.77,2.41,2.57-1.1,2.5-3.8,2.81-6.1.26-1.94.27-3.91.39-5.75,1.88-1.01,3.81-1.56,4.95-2.82.92-1.03,1.17-2.91,1.16-4.41,0-.67-1.61-2.03-2.05-1.87-1.24.45-2.74,1.3-3.28,2.4-1.85,3.82-4.61,7.3-4.77,11.86-.05,1.3-.78,2.58-1.46,4.69-5.77-4.08-10.97-7.75-16.16-11.41.49-1.61,1.15-3.76,1.81-5.9.31-2.32.41-4.69,1-6.94.44-1.67,1.21-3.44,2.35-4.7,2.17-2.41,4.69-2.36,7.05-.08,2.05,1.99,3.93,4.18,5.88,6.27.57,1.36,1.14,2.71,1.72,4.11,1.66-1.35,3.03-2.9,4.75-3.78,2.93-1.52,6.77-.47,6.03,3.76-.2,1.11-.03,2.27-.03,4.36,2.22-2.67,2.65-4.97,2.38-7.2-.47-3.96-5.41-5.82-9.49-3.84-1.27.62-2.18,2.75-4.08,1.13-1.16-2.4-2.33-4.8-3.82-7.88,1.16-.24,2.15-.68,3.09-.57.83.09,1.56.84,2.38,1.19,7.43,3.21,12.21-.28,12.12-8.82.42,0,.84,0,1.27,0Z"/>
  <path class="cls-3" d="m41.77,58.73c.45-3.07.73-5.02,1.06-7.27-5.45-4.89-10.58-10.14-9.91-19.36,6.04,1.69,7.27,9.07,13.8,8.91,9.16-11.13,19.72-19.88,36.55-11.69,1.15-4.25,2.26-8.35,3.38-12.51,3.93,2.74,6.09,8.82,4.49,13.22-1.27,3.49-2.52,6.76.15,10.21,1.42,1.83.49,3.79-.46,5.61-.67,1.28-1.2,2.64-1.95,3.88-3.37,5.58-6.8,11.12-10.44,17.06-3.84-1.24-7.63-1.2-11.08,1.49-.66.51-2.15.51-3,.15-7.48-3.12-14.9-6.37-22.59-9.69Z"/>
  <path class="cls-2" d="m66.86,83.95c-.66,2.14-1.31,4.29-1.81,5.9,5.19,3.66,10.39,7.34,16.16,11.41.69-2.11,1.42-3.39,1.46-4.69.16-4.56,2.92-8.03,4.77-11.86.54-1.11,2.03-1.95,3.28-2.4.44-.16,2.05,1.2,2.05,1.87,0,1.5-.24,3.39-1.16,4.41-1.14,1.26-3.07,1.81-4.95,2.82-.11,1.83-.13,3.81-.39,5.75-.31,2.3-.23,5-2.81,6.1-2.81,1.21-4.77-.87-6.77-2.41-.57-.44-1.19-.9-1.59-1.48-2.3-3.28-5.34-3.45-8.56-1.81-3.56,1.81-6.36.03-8.95-1.82-1.91-1.37-1.68-3.68-.12-5.28,1.36-1.39,3.12-2.46,4.84-3.41,1.76-.97,2.95-2.09,2.61-4.25.64.38,1.29.76,1.93,1.13Z"/>
  <path class="cls-1" d="m46.62,72.56c1.34-1.64,2.46-3.01,3.64-4.44,3.28.93,6.54,1.86,9.85,2.8-4.44,5.53-8.12,6.02-13.49,1.64Z"/>
  <path class="cls-2" d="m84.4,77.04c1.9,1.62,2.81-.51,4.08-1.13,4.08-1.98,9.01-.12,9.49,3.84.27,2.23-.17,4.53-2.38,7.2,0-2.09-.17-3.25.03-4.36.75-4.23-3.1-5.28-6.03-3.76-1.71.89-3.09,2.43-4.75,3.78-.58-1.39-1.15-2.75-1.72-4.11.43-.49.85-.98,1.28-1.47Z"/>
  <path class="cls-1" d="m88.51,60.31c1.86.13,3.23.22,4.56.32.62,5.89-1.41,7.13-7.85,4.6,1.09-1.62,2.14-3.19,3.3-4.91Z"/>
  <path class="cls-3" d="m42.51,70.4c-.53.02-1.07.04-1.6.06,0-2.21,0-4.42,0-6.63.43-.02.86-.04,1.28-.07.74,2.12.5,4.39.32,6.64Z"/>
  <path class="cls-3" d="m45.06,69.1c-.3-1.2-.59-2.4-.89-3.61.39-.1.78-.19,1.18-.29.29,1.25.58,2.5.87,3.76-.39.05-.77.09-1.16.14Z"/>
  <path class="cls-3" d="m89.58,57.71c1.25.09,2.5.19,3.76.28-.08.48-.17.97-.25,1.45-1.3-.12-2.59-.23-3.89-.35.13-.46.26-.92.38-1.38Z"/>
  <path class="cls-3" d="m99.44,60.97c-.42,0-.84,0-1.27,0-.42-1.15-.83-2.29-1.25-3.44.43-.16.85-.32,1.28-.47.41,1.3.82,2.61,1.24,3.91Z"/>
</svg>