<svg xmlns="http://www.w3.org/2000/svg" id="TG" viewBox="0 0 140.73 145.06">
  <defs>
    <style>
      .cls-1 {
        fill: #0a0d0f;
      }

      .cls-1, .cls-2, .cls-3, .cls-4 {
        stroke-width: 0px;
      }

      .cls-2 {
        fill: #0c1013;
      }

      .cls-3 {
        fill: #22a4e4;
      }

      .cls-4 {
        fill: #f9f9f9;
      }
    </style>
  </defs>
  <path class="cls-1" d="m140.73,78.35c-.96,21.1-9.78,40.15-30.29,52.86-13.66,8.47-28.08,14.38-44.55,13.8-8.66-.3-16.81-2.69-24.79-5.78-1.14-.44-2.89-1.27-2.98-2.08-.42-3.6-3.46-4.32-5.74-5.81C-3.36,108-10.8,60,16.52,27.21,36.36,3.39,61.88-4.43,91.77,2.33c16.84,3.81,29.26,14.09,37.46,29.25,7.48,13.83,10.8,28.78,11.5,46.77Zm-5.43-.42c-.58-16.44-3.54-28.72-9.46-40.18-8.25-15.98-21.19-26.02-38.89-29.56-8.04-1.61-16.16-1.86-24.38-.89C31.42,10.98,5.42,39.44,5.34,70.89c-.07,27.87,14.19,47.58,36.89,62.11.46.29.93.63,1.44.74,9.55,2.11,18.95,4.89,28.97,4.03,14.04-1.2,26.24-6.99,37.64-14.64,17.25-11.58,24.5-28.46,25.01-45.2Z"/>
  <path class="cls-3" d="m135.29,77.93c-.51,16.73-7.76,33.62-25.01,45.2-11.4,7.65-23.6,13.44-37.64,14.64-10.02.86-19.42-1.92-28.97-4.03-.51-.11-.99-.45-1.44-.74C19.53,118.47,5.27,98.75,5.34,70.89c.08-31.45,26.08-59.91,57.23-63.59,8.22-.97,16.34-.72,24.38.89,17.7,3.54,30.63,13.58,38.89,29.56,5.92,11.46,8.88,23.74,9.46,40.18Zm-66.29-1.96c.37.29.75.59,1.12.88-.9,1.35-1.77,2.73-2.72,4.04-3.18,4.41-6.61,8.66-9.54,13.23-2.7,4.23-2.06,6.8,2.05,9.74,3.39,2.42,6.91,4.69,10.55,6.71,8.11,4.5,10.52,3.83,13.87-4.92,5.05-13.2,9.9-26.49,14.18-39.95,2.01-6.32,2.91-13.1,3.5-19.74.6-6.72-2.09-8.5-8.62-6.37-3.96,1.29-7.82,2.89-11.66,4.49-17.62,7.35-34.13,16.76-50.07,27.23-3.36,2.21-3.69,6.31-.56,9.2,2.26,2.09,4.71,3.98,7.17,5.84,5.51,4.17,6.85,4.17,12.63.61,6.01-3.7,12.06-7.33,18.1-10.99Z"/>
  <path class="cls-2" d="m69,75.97c-6.04,3.66-12.09,7.28-18.1,10.99-5.78,3.56-7.12,3.56-12.63-.61-2.46-1.86-4.91-3.75-7.17-5.84-3.13-2.89-2.8-6.99.56-9.2,15.93-10.46,32.45-19.87,50.07-27.23,3.84-1.6,7.7-3.21,11.66-4.49,6.53-2.12,9.22-.35,8.62,6.37-.59,6.64-1.49,13.42-3.5,19.74-4.27,13.46-9.13,26.75-14.18,39.95-3.35,8.75-5.76,9.43-13.87,4.92-3.64-2.02-7.16-4.29-10.55-6.71-4.11-2.94-4.75-5.51-2.05-9.74,2.92-4.57,6.35-8.82,9.54-13.23.95-1.32,1.82-2.69,2.72-4.05.15-.4.3-.81.45-1.21-.52.11-1.04.22-1.56.32Zm-35.09-2.93c.44,4.81,4.26,6.27,6.77,8.65,5.05,4.79,5.34,4.77,11.24,1.32,5.12-2.98,10.01-6.37,15.15-9.29,2.63-1.5,5.32-3.6,9.39-2.24-2.93,10.22-11,17.44-14.96,27.29,5.45,3.58,10.66,7.01,16.06,10.56,1.02-1.56,1.76-2.38,2.16-3.34,7.37-17.95,14.14-36.11,17.56-55.31.46-2.56.28-5.24.44-8.66-23.5,7.32-43.84,18.93-63.82,31.02Z"/>
  <path class="cls-4" d="m33.92,73.04c19.97-12.09,40.31-23.71,63.82-31.02-.15,3.43.02,6.1-.44,8.66-3.42,19.2-10.19,37.36-17.56,55.31-.4.97-1.14,1.79-2.16,3.34-5.4-3.55-10.61-6.98-16.06-10.56,3.96-9.85,12.04-17.07,14.96-27.29-4.08-1.36-6.76.74-9.39,2.24-5.15,2.92-10.04,6.31-15.15,9.29-5.91,3.45-6.19,3.47-11.24-1.32-2.51-2.38-6.34-3.84-6.77-8.65Z"/>
  <path class="cls-3" d="m69,75.97c.52-.11,1.04-.22,1.56-.32-.15.4-.3.8-.45,1.21-.37-.29-.74-.59-1.12-.88Z"/>
</svg>