<svg xmlns="http://www.w3.org/2000/svg" id="TWITTER_X" data-name="TWITTER/X" viewBox="0 0 190.2 149.25">
  <defs>
    <style>
      .cls-1 {
        fill: #0c1013;
      }

      .cls-1, .cls-2, .cls-3 {
        stroke-width: 0px;
      }

      .cls-2 {
        fill: #1599ee;
      }

      .cls-3 {
        fill: #f5f6f6;
      }
    </style>
  </defs>
  <path class="cls-1" d="m181.87,88.22c5.77,3.95,6.08,4.8,4.31,11.33,2.49,2.01,4.99,4.34,3.65,8.11-1.67,4.69-5.92,5.42-10.05,6.07-1.65,3.1-2.97,6.31-4.9,9.1-6.01,8.7-14.21,14.42-24.56,16.86-15.24,3.59-30.75,5.25-46.3,6.76-14.3,1.4-28.6,2.75-42.94.93-19.95-2.54-38.34-9.32-54.9-20.85-1.04-.73-2.05-1.52-2.99-2.37-1.6-1.45-3.89-3.04-2.76-5.35.71-1.45,2.93-2.36,4.65-3.08,1.65-.68,3.53-.79,5.31-1.15,9.07-1.81,18.15-3.61,27.22-5.44.86-.17,1.7-.47,3.14-.87-.99-1.63-1.68-3.01-2.59-4.22-9.35-12.48-16.06-26.28-20.59-41.16-.52-1.73-.9-3.5-1.24-5.28-.09-.47.24-1.01.54-2.09,5.85-.03,10.43,4.43,16.34,5.16.3-4.75.22-9.28.95-13.69,1.59-9.65,3.57-19.23,5.42-28.83.14-.7.36-1.41.68-2.06,1.29-2.59,2.92-2.96,5.12-.91,1.58,1.47,2.88,3.26,4.25,4.95,3.07,3.78,6.11,7.58,9.68,12,1.56-2.28,2.75-4,3.93-5.73,5.02-7.34,9.96-14.74,15.1-21.99,1.51-2.13,3.05-5.14,6.32-4.25,3.25.89,2.92,4.17,3.32,6.82,2.08,13.81,4.05,27.64,6.32,41.43.75,4.56,2.27,8.99,3.67,14.35,1.92-2.08,3.24-3.47,4.51-4.9,9.38-10.61,19.9-19.62,33.56-24.34,9.65-3.33,19.41-4.61,29.4-1.73,13.65,3.93,21.44,14.32,21.63,28.52.1,7.91-1.76,15.47-3.74,23.03-.41,1.56-.92,3.09-1.46,4.87ZM6.38,119.76c-.12.39-.24.78-.36,1.17,1.55,1.17,3.06,2.42,4.67,3.5,11.33,7.56,24.01,12.06,37.09,15.11,12.04,2.81,24.46,3.23,36.81,2.61,11.41-.58,22.84-1.38,34.18-2.77,10.61-1.3,21.24-2.95,31.61-5.47,11.57-2.81,20.15-9.79,23.88-21.61.9-2.86,2.5-4.19,5.51-4.13,1.94.04,4.03-.01,5.02-2.66-.88-.62-1.68-1.29-2.57-1.79-4.05-2.24-4.2-2.81-1.85-6.53.52-.82.77-1.8,1.16-2.74-6.12-1.92-6.26-2.17-4.55-7.63.32-1.04.76-2.05,1-3.11,1.24-5.43,2.44-10.87,3.78-16.87-2.17.61-3.5,1.07-4.86,1.34-6.43,1.29-11.65-3.44-10.88-9.93.52-4.39,2.98-7.72,6.32-10.44,1.2-.98,2.49-1.85,3.91-2.89-5.09-5.89-11.39-8.35-18.44-8.94-11.87-1-22.6,2.64-32.5,8.88-9.94,6.27-17.8,14.84-25.39,23.67-2.59,3.02-4.73,6.53-8.61,8.48.17-2.28.73-4.3,1.65-6.13.86-1.7,1.23-3.17.58-5.13-5.2-15.58-7.58-31.72-9.32-47.99-.36-3.34-.87-6.66-1.31-9.99-2.05,1.04-3.14,2.37-4.09,3.81-3.5,5.3-6.94,10.64-10.42,15.96-1.39,2.13-2.67,4.35-4.24,6.33-3.06,3.86-5.67,4-8.91.23-2.83-3.3-5.24-6.95-7.83-10.45-1.26-1.7-2.5-3.42-3.75-5.14-.38.05-.76.1-1.14.16-.93,4.93-2.22,9.82-2.72,14.79-.83,8.3-1.28,16.64-1.66,24.97-.34,7.46-2.05,8.62-9.08,5.65-1.5-.64-2.97-1.36-4.5-1.93-1.06-.4-2.18-.61-3.79-1.04.49,1.68.73,2.72,1.1,3.71,5.03,13.76,12.23,26.29,21.45,37.68,1.14,1.41,2.39,2.77,3.31,4.31,1.55,2.6.93,4.37-1.87,5.66-1.14.53-2.39.88-3.63,1.12-5.69,1.12-11.39,2.23-17.1,3.24-5.87,1.04-11.76,1.96-17.64,2.94ZM175.42,50.18c-.48-.06-.96-.12-1.43-.18-1.24,2.54-2.83,4.97-3.63,7.64-1.18,3.94,1.3,6.86,5.39,6.6,1.91-.12,3.79-.82,5.74-1.28v-5.52c-3.74-.82-5.85-3.25-6.07-7.27Z"/>
  <path class="cls-2" d="m6.38,119.76c5.88-.97,11.77-1.9,17.64-2.94,5.71-1.01,11.41-2.12,17.1-3.24,1.24-.24,2.49-.6,3.63-1.12,2.8-1.29,3.42-3.06,1.87-5.66-.92-1.55-2.17-2.9-3.31-4.31-9.22-11.38-16.41-23.92-21.45-37.68-.36-.99-.6-2.03-1.1-3.71,1.61.43,2.73.64,3.79,1.04,1.53.57,3,1.29,4.5,1.93,7.03,2.97,8.74,1.81,9.08-5.65.38-8.33.83-16.67,1.66-24.97.5-4.97,1.79-9.86,2.72-14.79.38-.05.76-.1,1.14-.16,1.25,1.71,2.49,3.43,3.75,5.14,2.59,3.5,5.01,7.15,7.83,10.45,3.24,3.78,5.85,3.63,8.91-.23,1.57-1.98,2.85-4.2,4.24-6.33,3.47-5.32,6.92-10.65,10.42-15.96.95-1.43,2.04-2.77,4.09-3.81.44,3.33.95,6.65,1.31,9.99,1.74,16.26,4.12,32.41,9.32,47.99.65,1.96.28,3.42-.58,5.13-.92,1.83-1.48,3.85-1.65,6.13,3.88-1.94,6.02-5.46,8.61-8.48,7.59-8.84,15.45-17.4,25.39-23.67,9.9-6.24,20.63-9.88,32.5-8.88,7.05.59,13.35,3.05,18.44,8.94-1.42,1.04-2.71,1.91-3.91,2.89-3.34,2.72-5.8,6.05-6.32,10.44-.77,6.49,4.46,11.21,10.88,9.93,1.36-.27,2.69-.73,4.86-1.34-1.34,6-2.54,11.44-3.78,16.87-.24,1.06-.68,2.07-1,3.11-1.71,5.47-1.57,5.72,4.55,7.63-.39.94-.64,1.92-1.16,2.74-2.36,3.71-2.2,4.28,1.85,6.53.9.5,1.7,1.17,2.57,1.79-.99,2.65-3.08,2.71-5.02,2.66-3.01-.06-4.61,1.27-5.51,4.13-3.73,11.82-12.3,18.8-23.88,21.61-10.37,2.52-21,4.17-31.61,5.47-11.34,1.39-22.77,2.19-34.18,2.77-12.35.62-24.77.2-36.81-2.61-13.09-3.05-25.76-7.55-37.09-15.11-1.62-1.08-3.12-2.33-4.67-3.5.12-.39.24-.78.36-1.17Zm131.84-29.22c.11.24.23.49.34.73,2.87-1.34,6-2.31,8.56-4.1,3.52-2.46,4.83-6.25,3.95-10.53-.9-4.36-3.89-6.78-8.04-7.86-4.75-1.23-9.35-.72-13.66,1.6-4.98,2.68-7.28,8.28-5.53,13.35.98,2.84,2.67,5.27,5.81,5.87,2.81.54,5.71.64,8.57.93Z"/>
  <path class="cls-3" d="m175.42,50.18c.22,4.02,2.33,6.45,6.07,7.27v5.52c-1.96.45-3.83,1.16-5.74,1.28-4.09.26-6.56-2.66-5.39-6.6.8-2.67,2.39-5.1,3.63-7.64.48.06.96.12,1.43.18Z"/>
  <path class="cls-1" d="m138.23,90.54c-2.86-.29-5.76-.39-8.57-.93-3.14-.6-4.83-3.03-5.81-5.87-1.75-5.07.55-10.67,5.53-13.35,4.31-2.32,8.91-2.84,13.66-1.6,4.16,1.08,7.14,3.49,8.04,7.86.89,4.28-.42,8.07-3.95,10.53-2.56,1.79-5.69,2.76-8.56,4.1-.11-.24-.23-.49-.34-.73Zm-5.81-3.37c4.25.26,8,.28,11.47-1.63,2.76-1.52,4.38-3.75,4.07-7.03-.27-2.93-2.16-4.9-5.65-5.71-4.42-1.03-8.48-.28-12.32,2.87,4.45,3.1,5.51,6.84,2.43,11.5Z"/>
  <path class="cls-3" d="m132.42,87.17c3.08-4.66,2.02-8.4-2.43-11.5,3.84-3.15,7.9-3.9,12.32-2.87,3.49.81,5.38,2.78,5.65,5.71.3,3.27-1.31,5.5-4.07,7.03-3.47,1.91-7.21,1.89-11.47,1.63Z"/>
</svg>